Coordinates
version=1
nRows=9
nColumns=63
inDegrees=yes

Units are S.I. units (second, meters, Newtons, ...)
If the header above contains a line with 'inDegrees', this indicates whether rotational values are in degrees (yes) or radians (no).

endheader
time	pelvis_tilt	pelvis_list	pelvis_rotation	pelvis_tx	pelvis_ty	pelvis_tz	hip_flexion_r	hip_adduction_r	hip_rotation_r	knee_angle_r	knee_angle_r_beta	ankle_angle_r	subtalar_angle_r	mtp_angle_r	hip_flexion_l	hip_adduction_l	hip_rotation_l	knee_angle_l	knee_angle_l_beta	ankle_angle_l	subtalar_angle_l	mtp_angle_l	L5_S1_Flex_Ext	L5_S1_Lat_Bending	L5_S1_axial_rotation	L4_L5_Flex_Ext	L4_L5_Lat_Bending	L4_L5_axial_rotation	L3_L4_Flex_Ext	L3_L4_Lat_Bending	L3_L4_axial_rotation	L2_L3_Flex_Ext	L2_L3_Lat_Bending	L2_L3_axial_rotation	L1_L2_Flex_Ext	L1_L2_Lat_Bending	L1_L2_axial_rotation	L1_T12_Flex_Ext	L1_T12_Lat_Bending	L1_T12_axial_rotation	Abs_r3	Abs_r2	Abs_r1	Abs_t1	Abs_t2	neck_flexion	neck_bending	neck_rotation	arm_flex_r	arm_add_r	arm_rot_r	elbow_flex_r	pro_sup_r	wrist_flex_r	wrist_dev_r	arm_flex_l	arm_add_l	arm_rot_l	elbow_flex_l	pro_sup_l	wrist_flex_l	wrist_dev_l
      0.86666667	     -0.06883934	     -0.41053644	     87.68501067	      0.20754791	      0.99230847	      0.39331311	     -7.93250961	      3.08621189	      7.97055108	      4.48720976	      0.07831658	     28.75402884	      1.70199401	      0.00000000	     -3.07538321	     -2.84395680	     -8.85032570	     13.90916997	      0.24276081	     29.63779346	     -4.47084522	      0.00000000	      0.06053316	      0.26882980	      0.16879177	      0.11241613	      0.35754364	      0.17934125	      0.09944993	      0.65363278	      0.17934125	      0.06918335	      0.65363278	      0.14769280	      0.05621109	      0.54819773	      0.13714331	      0.03458865	      0.41641736	      0.12659383	      0.43238232	      3.04105648	      0.93876918	      0.00000000	      0.00000000	     21.78218064	      6.60915701	     14.52912209	     78.99051641	     -7.88160141	     21.62076800	     42.13925622	     56.70328320	     -7.40941096	      9.31210945	     68.81271611	    -32.44908646	     30.21724008	     66.55673248	     53.84121288	     -4.66027776	      6.61039954
      0.88333333	     -0.06181031	     -0.01645252	     87.97637825	      0.20673080	      0.99245778	      0.39313526	     -8.43533078	      3.11141399	      8.40431679	      4.39211146	      0.07665681	     28.62113007	      0.71155941	      0.00000000	     -3.34657443	     -2.79417022	     -7.96864004	     14.19323425	      0.24771867	     29.57717629	     -4.99923960	      0.00000000	      0.06126000	      0.26042504	      0.65005227	      0.11376596	      0.34636531	      0.69068054	      0.10064406	      0.63319745	      0.69068054	      0.07001406	      0.63319745	      0.56879574	      0.05688604	      0.53105875	      0.52816747	      0.03500397	      0.40339839	      0.48753920	      0.43757409	      2.94598018	      3.61539572	      0.00000000	      0.00000000	     21.41214222	      5.80100844	     11.92519531	     83.33469069	     -9.96528556	     32.59843702	     32.19991696	     45.10095831	     -7.92291364	      5.51081462	     75.60710225	    -26.18557523	     40.09925879	     54.13184983	     44.95417500	     -6.17229060	      5.58853288
      0.90000000	     -0.08588842	      0.26918435	     88.24395138	      0.20603860	      0.99284931	      0.39273249	     -8.83022209	      3.08820264	      8.34895825	      4.30291129	      0.07509997	     28.41574594	      0.31299322	      0.00000000	     -3.56447895	     -2.72402697	     -7.25074389	     14.36600358	      0.25073406	     29.45510136	     -5.31827449	      0.00000000	      0.06997258	      0.24212514	      1.01213036	      0.12994608	      0.32202644	      1.07538851	      0.11495795	      0.58870307	      1.07538851	      0.07997166	      0.58870307	      0.88561407	      0.06497654	      0.49374159	      0.82235592	      0.03998233	      0.37505185	      0.75909777	      0.49980714	      2.73896804	      5.62916545	      0.00000000	      0.00000000	     20.96211924	      5.50591752	      9.57396631	     84.94652478	    -10.95160742	     36.84837806	     26.54489144	     43.56945146	     -7.03534404	      5.20268655	     79.39477066	    -20.42769623	     44.77764075	     44.63191703	     42.53937550	     -5.14005368	      6.82641173
      0.91666667	     -0.20803548	      0.70624178	     88.56907758	      0.20530966	      0.99327365	      0.39284481	     -9.31250968	      3.03213590	      9.28214945	      4.29949822	      0.07504040	     27.98224373	     -1.80540265	      0.00000000	     -3.84964952	     -2.52695363	     -6.17912863	     14.61816829	      0.25513517	     29.31471891	     -6.01469531	      0.00000000	      0.05879759	      0.22483909	      1.13855990	      0.10919300	      0.29903599	      1.20971989	      0.09659855	      0.54667377	      1.20971989	      0.06719976	      0.54667377	      0.99623991	      0.05459944	      0.45849188	      0.92507992	      0.03359694	      0.34827576	      0.85391992	      0.41998528	      2.54342480	      6.33232858	      0.00000000	      0.00000000	     19.82941806	      5.04530794	      8.26121060	     87.95539152	    -12.26643547	     55.79799743	     22.70350564	     21.56011615	     -6.94126927	      2.19967344	     82.18831235	    -18.21863292	     52.20410336	     39.73261386	     33.64380593	     -5.32343272	      4.64227131
      0.93333333	     -0.33799280	      1.12128093	     88.80041960	      0.20486265	      0.99413305	      0.39312242	     -9.66847498	      2.91935638	      8.94469989	      4.44973185	      0.07766247	     27.84555926	     -2.03588589	      0.00000000	     -4.16786464	     -2.38623300	     -5.76165498	     14.75601447	      0.25754104	     29.24798902	     -5.96449655	      0.00000000	      0.04872192	      0.21748496	      1.17974194	      0.09048149	      0.28925499	      1.25347582	      0.08004525	      0.52879293	      1.25347582	      0.05568429	      0.52879293	      1.03227420	      0.04524318	      0.44349533	      0.95854033	      0.02783971	      0.33688420	      0.88480646	      0.34801583	      2.46023335	      6.56137077	      0.00000000	      0.00000000	     18.43336048	      5.04301394	      8.30828443	     87.72735618	    -12.07113464	     55.67279897	     21.92128072	     21.09752295	     -7.00685662	      2.99987447	     82.24863171	    -17.15085765	     52.30781324	     38.51544404	     33.41560550	     -5.50556577	      4.85369811
      0.95000000	     -0.44079705	      1.62580726	     88.88056484	      0.20476486	      0.99494813	      0.39392135	    -10.02827254	      2.83774796	      8.67346733	      4.70335509	      0.08208903	     27.71619125	     -2.20632764	      0.00000000	     -4.54576798	     -2.27814037	     -5.52623476	     14.94245795	      0.26079509	     29.31567125	     -5.95716041	      0.00000000	      0.01227101	      0.21244395	      1.18360696	      0.02278849	      0.28255045	      1.25758239	      0.02016004	      0.51653621	      1.25758239	      0.01402454	      0.51653621	      1.03565609	      0.01139486	      0.43321570	      0.96168065	      0.00701165	      0.32907567	      0.88770522	      0.08765059	      2.40320842	      6.58286683	      0.00000000	      0.00000000	     17.31866771	      5.05803306	      8.30010586	     87.60833730	    -11.97033289	     55.43066307	     22.28246133	     20.84640525	     -6.79539974	      3.19170431	     82.08412666	    -17.20103729	     52.09004470	     38.96139380	     33.30664320	     -5.33524824	      4.61739519
      0.96666667	     -0.61691968	      1.88319047	     89.58838819	      0.20381431	      0.99562638	      0.39395405	    -10.26465950	      2.75189141	      7.09725692	      4.80735128	      0.08390411	     27.86583198	     -1.21125233	      0.00000000	     -4.76474275	     -1.99019169	     -3.69569851	     14.82669844	      0.25877470	     28.82466556	     -7.41957288	      0.00000000	      0.01669286	      0.21320390	      0.96249449	      0.03100030	      0.28356118	      1.02265040	      0.02742469	      0.51838395	      1.02265040	      0.01907827	      0.51838395	      0.84218268	      0.01550099	      0.43476538	      0.78202677	      0.00953830	      0.33025284	      0.72187087	      0.11923540	      2.41180511	      5.35310561	      0.00000000	      0.00000000	     16.16183102	      5.26811944	      9.95338553	     86.05056306	    -10.81207685	     46.90065792	     24.31517732	     24.06391267	     -6.93127317	      4.89834825	     80.32546089	    -18.13419272	     47.92373251	     41.30837857	     35.32566895	     -5.80414934	      5.16744776
      0.98333333	     -0.79996154	      2.09658588	     89.95923111	      0.20375567	      0.99610547	      0.39404114	    -10.36162898	      2.63079976	      5.48673299	      5.08781104	      0.08879905	     28.15869033	      0.35139638	      0.00000000	     -4.97886265	     -1.92242372	     -3.91504355	     14.78047985	      0.25796804	     28.90965396	     -6.49879301	      0.00000000	      0.00828388	      0.20789753	      0.78536172	      0.01538399	      0.27650372	      0.83444683	      0.01360958	      0.50548207	      0.83444683	      0.00946764	      0.50548207	      0.68719151	      0.00769241	      0.42394465	      0.63810640	      0.00473341	      0.32203328	      0.58902129	      0.05917090	      2.35177849	      4.36794630	      0.00000000	      0.00000000	     15.40178781	      5.30408189	     11.49295084	     84.46865485	     -9.18607201	     37.46605540	     26.36156492	     33.29235981	     -7.02610723	      6.84333133	     79.15857040	    -19.54618445	     45.72742276	     43.81172689	     35.72545487	     -6.07318829	      5.58585575
      1.00000000	     -0.95657911	      2.26346943	     90.31701259	      0.20348905	      0.99632722	      0.39405883	    -10.46733596	      2.57218343	      4.99637634	      5.27671054	      0.09209597	     28.17178759	      0.47663940	      0.00000000	     -5.15853692	     -1.81614577	     -3.81931412	     14.71894105	      0.25689398	     28.88706715	     -6.18389487	      0.00000000	      0.00223071	      0.20607585	      0.57608518	      0.00414265	      0.27408088	      0.61209050	      0.00366483	      0.50105282	      0.61209050	      0.00254948	      0.50105282	      0.50407453	      0.00207144	      0.42022987	      0.46806921	      0.00127463	      0.31921149	      0.43206389	      0.01593373	      2.33117123	      3.20401295	      0.00000000	      0.00000000	     14.80578198	      5.02281806	     12.65384899	     84.24832606	     -8.07762525	     36.42663663	     27.54517575	     34.06986350	     -7.02339000	      6.87360069	     78.27018745	    -21.30444173	     44.77767915	     46.20155537	     35.19274434	     -6.57982098	      5.60183002
